PathFileType	4	(X/Y/Z)	2014001\dynamic\2014001_C1_01.trc
DataRate	CameraRate	NumFrames	NumMarkers	Units	OrigDataRate	OrigDataStartFrame	OrigNumFrames
100.000000	100.000000	4	52	mm	100.000000	290	387
Frame#	Time	L_IAS			L_IPS			R_IPS			R_IAS			L_FTC			L_FLE			L_FME			L_FAX			L_TTC			L_FAL			L_TAM			L_FCC			L_FM1			L_FM2			L_FM5			R_FTC			R_FLE			R_FME			R_FAX			R_TTC			R_FAL			R_TAM			R_FCC			R_FM1			R_FM2			R_FM5			CV7			TV10			SXS			SJN			L_SIA			L_SRS			L_SAA			L_SAE			L_HLE			L_HME			L_UOA			L_RSP			L_UHE			L_HM2			L_HM5			R_SIA			R_SRS			R_SAA			R_SAE			R_HLE			R_HME			R_UOA			R_RSP			R_UHE			R_HM2			R_HM5			
		X1	Y1	Z1	X2	Y2	Z2	X3	Y3	Z3	X4	Y4	Z4	X5	Y5	Z5	X6	Y6	Z6	X7	Y7	Z7	X8	Y8	Z8	X9	Y9	Z9	X10	Y10	Z10	X11	Y11	Z11	X12	Y12	Z12	X13	Y13	Z13	X14	Y14	Z14	X15	Y15	Z15	X16	Y16	Z16	X17	Y17	Z17	X18	Y18	Z18	X19	Y19	Z19	X20	Y20	Z20	X21	Y21	Z21	X22	Y22	Z22	X23	Y23	Z23	X24	Y24	Z24	X25	Y25	Z25	X26	Y26	Z26	X27	Y27	Z27	X28	Y28	Z28	X29	Y29	Z29	X30	Y30	Z30	X31	Y31	Z31	X32	Y32	Z32	X33	Y33	Z33	X34	Y34	Z34	X35	Y35	Z35	X36	Y36	Z36	X37	Y37	Z37	X38	Y38	Z38	X39	Y39	Z39	X40	Y40	Z40	X41	Y41	Z41	X42	Y42	Z42	X43	Y43	Z43	X44	Y44	Z44	X45	Y45	Z45	X46	Y46	Z46	X47	Y47	Z47	X48	Y48	Z48	X49	Y49	Z49	X50	Y50	Z50	X51	Y51	Z51	X52	Y52	Z52	

291	2.9	148.5024414062501	879.4776000976567	-136.1530303955079	206.3903350830079	921.7899780273442	47.78134155273439	295.1712646484376	915.226684570313	55.57841491699222	389.3243713378909	873.679077148438	-109.7934036254883	84.83145141601565	796.8538208007817	-69.23929595947268	128.4927368164063	440.8962097167971	-104.6153793334962	242.8652648925782	438.3861999511721	-117.2087631225587	126.8363342285157	375.8043518066407	-92.48113250732425	177.5503234863282	367.1558227539064	-153.4169006347657	185.1941223144532	59.99228286743167	-111.2471084594727	270.9272460937501	76.90217590332034	-135.1484069824219	236.2887268066407	20.59691619873048	-71.8687438964844	253.0068359375001	22.94628143310548	-251.3763275146486	191.555648803711	34.71297073364259	-257.4337768554689	148.8615264892579	21.70752525329591	-202.5666961669923	432.8249206542971	787.3505249023442	1.84767496585846	428.3814086914065	448.7936096191409	55.94249343872073	315.4216918945314	416.540466308594	23.35571098327637	433.0032958984377	402.4421386718752	103.8234252929688	393.6341857910159	355.6691894531251	48.80571746826175	385.7457275390627	162.4270324707032	310.811004638672	308.2605590820314	150.8577117919922	261.2540283203126	323.1202697753907	158.7579956054688	361.1515502929689	308.3550109863282	35.63816452026369	236.5246887207032	370.4768066406251	37.07486724853517	231.5370178222657	412.2215576171877	50.39996719360354	279.2071228027345	266.3579406738282	1379.637084960938	38.26226043701173	254.5982971191407	1142.065551757813	89.93289184570315	255.2287902832032	1157.886108398438	-141.3485412597657	259.9577026367189	1317.475341796875	-91.62470245361331	164.1984252929688	1182.463134765625	94.26374816894534	174.9760131835938	1315.594360351563	81.46233367919925	66.12419128417972	1318.978271484375	7.049611568450931	80.63426208496097	1331.005981445313	-33.05514526367189	-0.3270319998264314	1046.482666015625	2.539355278015138	76.88971710205081	1014.485961914063	30.09461212158205	26.39691543579103	1011.581726074219	35.4269142150879	47.367733001709	824.100708007813	-107.8748931884766	-19.01618385314942	815.5033569335942	-64.20893859863284	41.42177200317384	750.1250610351565	-152.5866088867188	-20.06407546997071	737.194519042969	-69.20295715332034	371.9229125976564	1181.658203125	97.95297241210943	351.8778381347657	1307.900390625	77.05416107177737	454.7671508789065	1304.78466796875	-2.9675030708313	442.1411743164065	1309.566162109375	-51.70637512207034	511.0548400878909	1006.723999023438	-7.509358882904056	435.5623168945315	992.6926879882817	24.97653961181642	481.5325012207034	983.8973999023442	25.42049789428712	466.9058227539065	803.6250000000005	-112.0963516235352	532.369812011719	797.2206420898442	-63.76107025146487	479.5601196289065	718.339050292969	-150.4977722167969	530.4534912109377	716.4038696289065	-61.56817626953128	
292	2.91	146.8960876464844	879.5197143554692	-140.379135131836	204.6835021972657	922.410522460938	43.4022903442383	293.7147216796876	915.7103881835942	51.21590805053714	387.7659301757815	874.3679809570317	-114.2701110839844	83.45741271972659	796.8421020507817	-72.90229034423831	127.5293502807618	440.8311462402346	-106.0142898559571	241.8060302734376	438.3792419433596	-119.1067276000977	126.1030273437501	375.7851562500001	-93.28649902343753	176.4258270263672	366.8952636718751	-154.5508880615235	185.1446533203126	60.02251434326175	-111.1002426147462	270.6497802734376	77.09430694580081	-135.3453826904297	236.2583618164064	20.58193016052247	-71.81248474121097	253.0045928955079	23.06268310546876	-251.3186492919923	191.4945220947266	34.62859344482423	-257.4277954101564	148.7641601562501	21.63240242004395	-202.5516662597657	431.4190368652346	787.626831054688	-2.998253822326661	428.2131652832034	448.3963928222659	47.19335174560548	315.2191772460939	415.846862792969	14.19958591461182	432.8297119140627	402.7603149414065	95.10594177246097	393.5964660644534	355.2459411621095	40.52001953125001	384.4321594238284	166.3076934814454	305.5139465332032	307.1252441406251	153.6190948486329	255.8614501953126	321.690399169922	163.9010620117188	355.853973388672	307.8657531738282	37.44321823120119	234.3539123535157	369.9685668945314	38.45803833007814	229.6851348876954	411.1777343750002	53.76881027221683	276.8565368652345	264.347625732422	1380.239501953125	33.14964675903322	252.6918182373048	1142.763549804688	85.17671203613284	253.5500640869142	1158.235473632813	-146.1688995361329	258.1509399414064	1317.9443359375	-96.73162841796881	161.9888000488282	1183.1748046875	89.10266113281253	172.8572692871094	1316.211791992188	76.15811920166018	64.129020690918	1319.567016601563	1.450346827507019	78.83576202392581	1331.542724609375	-38.59828567504884	-2.898436307907105	1047.180541992188	-3.451501131057741	74.11238861083987	1014.914184570313	24.21442794799806	23.65125465393067	1012.04736328125	29.3735752105713	44.77065277099611	825.419067382813	-115.1368865966797	-21.60090065002442	816.5563964843755	-71.56362152099612	38.71760940551759	751.8047485351565	-160.4579467773438	-22.70892143249512	738.2827148437502	-77.10977935791018	370.0096740722657	1182.374877929688	93.14215087890628	349.8675842285157	1308.617309570313	72.17195892333987	452.8617858886721	1305.4375	-7.753156661987308	440.272399902344	1310.197387695313	-56.49856567382815	509.1264343261721	1007.183349609375	-12.96365356445313	433.5483398437502	993.0015258789067	19.32764625549317	479.4949340820315	984.067260742188	19.67880821228028	464.8978271484377	805.1760864257817	-119.6645965576172	530.1580810546877	798.1577758789067	-71.26593780517581	477.506530761719	720.276062011719	-158.9655761718751	528.0239868164065	717.3198242187502	-69.87222290039065	
293	2.92	145.2681121826172	879.573364257813	-144.4842071533204	203.101287841797	922.949829101563	39.16011810302736	292.3784790039064	916.1560058593755	46.96075820922853	386.2060852050784	875.059204101563	-118.7104263305665	82.15171051025393	796.7875976562505	-76.3988952636719	126.6356887817383	440.7586059570315	-107.3611297607422	240.8040771484376	438.3464355468752	-120.9998855590821	125.4400634765626	375.7698059082032	-94.04891204833987	175.3563537597657	366.6275634765626	-155.6486968994141	185.1254272460938	60.05495834350589	-110.9533843994141	270.4001770019532	77.27022552490237	-135.5454406738282	236.2392578125001	20.57199859619141	-71.76727294921878	252.9953613281251	23.17470741271973	-251.2682495117189	191.4286804199219	34.548152923584	-257.4246520996095	148.659896850586	21.56269645690919	-202.530731201172	430.1321716308596	787.8705444335942	-7.874426364898685	427.9947509765627	447.9629211425784	38.2800750732422	314.9133605957032	415.2455139160159	5.009122371673586	432.633483886719	403.0328369140627	86.21088409423831	393.4392700195315	354.8196411132814	32.05699539184572	383.0621032714845	170.2071533203126	299.9727172851564	305.8929138183595	156.4202880859376	250.2468872070314	320.2066040039064	169.0276031494141	350.2952575683595	307.4526672363282	39.39164352416994	231.7796020507814	369.4489135742189	40.01140213012697	227.4474487304689	410.1069946289065	57.30014801025393	274.2084045410157	262.3589477539064	1380.819213867188	28.17701339721681	250.8531646728517	1143.427001953125	80.56143951416018	251.9263916015626	1158.543823242188	-150.8381042480469	256.3916625976564	1318.375854492188	-101.6998596191407	159.8142242431641	1183.859985351563	84.074333190918	170.753402709961	1316.790893554688	70.97568511962893	62.15210342407229	1320.114990234375	-4.07453489303589	77.08945465087893	1332.029052734375	-44.04257965087892	-5.397834777832033	1047.825317382813	-9.504933357238773	71.36313629150393	1015.291931152344	18.31869125366212	20.95974159240723	1012.470642089844	23.2648105621338	42.21601486206056	826.6255493164067	-122.3254776000977	-24.17823791503908	817.5566406250005	-78.8906173706055	36.09452056884767	753.3286132812502	-168.1765289306641	-25.37678527832033	739.3200683593752	-84.92456817626956	368.163543701172	1183.088623046875	88.48911285400393	347.8877563476564	1309.313842773438	67.43972778320315	450.9966430664065	1306.088134765625	-12.37310028076173	438.4504394531252	1310.825439453125	-61.12602233886722	507.2436218261721	1007.6318359375	-18.2495288848877	431.5685119628909	993.2952270507817	13.8189458847046	477.4734497070315	984.1940917968755	14.06681728363038	462.980407714844	806.8371582031255	-127.2657852172852	527.9766845703127	799.133911132813	-78.73252105712893	475.5684509277346	722.352966308594	-167.5081939697266	525.5843505859377	718.2756958007815	-78.19681549072268	
294	2.93	143.6238708496094	879.6343383789067	-148.4786987304688	201.660369873047	923.3942871093755	35.02586746215822	291.155731201172	916.565307617188	42.79301071166994	384.6450195312502	875.7492065429692	-123.1254882812501	80.91516876220706	796.7084960937505	-79.77336120605472	125.8108520507813	440.6800231933596	-108.6722488403321	239.8619079589845	438.2880859375002	-122.8925857543946	124.8442764282227	375.7584838867189	-94.79337310791018	174.3460998535157	366.353485107422	-156.7260284423829	185.1328277587891	60.08779525756839	-110.810890197754	270.183074951172	77.42307281494143	-135.7422180175782	236.2308044433595	20.56809043884278	-71.73149871826175	252.9826202392579	23.27439308166505	-251.2268066406251	191.3591003417969	34.46983337402345	-257.4253234863282	148.5516204833985	21.49715423583985	-202.5056915283204	428.9649658203127	788.0908813476567	-12.78755378723145	427.727478027344	447.5188293457034	29.25804138183595	314.5157470703126	414.7432861328127	-4.165470123291017	432.4130859375002	403.276306152344	77.19657897949222	393.1807556152346	354.4095153808595	23.45864868164063	381.6618041992189	174.0757904052735	294.1883850097657	304.6061401367189	159.2163238525391	244.3927001953126	318.6854553222657	174.0569152832032	344.4636535644532	307.1570434570314	41.43124008178712	228.7383422851564	368.9595336914064	41.70859146118165	224.775604248047	409.0474548339846	60.93835067749026	271.2144165039064	260.3970031738282	1381.374755859375	23.34821510314942	249.0830993652345	1144.0498046875	76.07883453369143	250.3509063720704	1158.81884765625	-155.3627166748047	254.6760253906251	1318.772094726563	-106.526710510254	157.6870574951172	1184.509643554688	79.18211364746097	168.6754760742188	1317.32568359375	65.92635345458987	60.20194625854495	1320.619018554688	-9.495602607727054	75.39265441894534	1332.466674804688	-49.36508560180667	-7.81900262832642	1048.4140625	-15.60382747650147	68.65800476074222	1015.618896484375	12.4181833267212	18.33341217041016	1012.849853515625	17.11621093750001	39.71211242675783	827.723510742188	-129.4352569580079	-26.74009132385255	818.5016479492192	-86.17708587646487	33.55577087402345	754.6970825195315	-175.7374572753907	-28.05920600891115	740.3045043945315	-92.63923645019534	366.3833923339845	1183.788818359375	83.98551940917972	345.9434509277345	1309.983154296875	62.85326766967776	449.1720886230471	1306.730346679688	-16.83770370483399	436.6726989746096	1311.44482421875	-65.59873962402347	505.4216003417971	1008.06884765625	-23.37361526489259	429.6484069824221	993.5756225585942	8.46290493011475	475.495300292969	984.2810058593755	8.590166091918949	461.1360168457034	808.6072387695317	-134.8802032470704	525.8267211914065	800.1472778320317	-86.158805847168	473.7188720703127	724.5675048828127	-176.0981597900391	523.1411132812502	719.272644042969	-86.5380783081055	
